<svg id="Portfolio" xmlns="http://www.w3.org/2000/svg" xmlns:xlink="http://www.w3.org/1999/xlink" viewBox="0 0 930 930"><defs><style>.cls-1{fill:none;}.cls-2{clip-path:url(#clip-path);}.cls-3{opacity:0.6;}.cls-4{fill:#f06743;}.cls-5{opacity:0.7;}.cls-6{clip-path:url(#clip-path-2);}.cls-7{fill:#ffed48;opacity:0.37;}.cls-8{fill:#fec447;opacity:0.3;}.cls-9{fill:#e6e6e6;}.cls-11,.cls-9{stroke:#1a1a1a;}.cls-10,.cls-11,.cls-9{stroke-miterlimit:10;}.cls-10,.cls-9{stroke-width:1.5px;}.cls-10{fill:#1a1a1a;stroke:#4d4d4d;}.cls-11{fill:#f27545;stroke-width:0.5px;}</style><clipPath id="clip-path"><rect class="cls-1" width="930" height="930"/></clipPath><clipPath id="clip-path-2"><path id="Contour" class="cls-1" d="M208.47,357.77c-7.33,10-68.48,96.13-57.94,106.67,0,0-52.68,25-5.27,65.84,0,0,36.87,11.85,27.66,36.87S166.33,604,184.77,608s-2.64,38.19-6.59,38.19-10.53,29,14.49,31.6,52.68,159.35,266,154.08,289.72-76.38,326.59-204.12c0,0,59.26,15.8,13.17-109.3,0,0-21.07-54-1.32-79,0,0-15.8,26.34-25,18.44s-6.58-43.46-6.58-43.46-17.12,6.59-18.44,1.32,25-30.29,2.63-71.11c0,0-2.63-21.07-22.38-21.07s-48.73-34.24-67.17-169.89c0,0-34.24,92.19-72.43,63.22S503.46,73.31,513.34,45c0,0-108,90.87-94.82,114.57,0,0-41.48-.66-54.65,20.41s10.53,38.19,10.53,38.19S248,303.77,208.47,357.77Z"/></clipPath></defs><title>Plan de travail 1</title><g class="cls-2"><rect width="930" height="930"/><g id="Dessin"><g class="cls-3"><path class="cls-4" d="M794.22,443.83c1.8-2.56,2.91-4.42,2.91-4.42A32.42,32.42,0,0,0,794.22,443.83Z"/></g><g class="cls-5"><path class="cls-4" d="M798.45,518.43s-18.79-48.17-4.23-74.6c-5,7.13-15.33,19.83-22.11,14-9.22-7.9-6.58-43.46-6.58-43.46s-17.12,6.59-18.44,1.32,25-30.29,2.63-71.11c0,0-2.63-21.07-22.38-21.07s-48.73-34.24-67.17-169.89c0,0-34.24,92.19-72.43,63.22S503.46,73.31,513.34,45c0,0-108,90.87-94.82,114.57,0,0-41.48-.66-54.65,20.41s10.53,38.19,10.53,38.19-20.76,14.06-48.09,34.38v0s-34.2-21.84-21-74.51c0,0-18.44,51.36-29,55.31s-27.65,34.24,3.95,35.55c10.56.44,14.65,3.38,15.42,7.1-33.69,26.5-69.32,57.38-87.19,81.8-7.33,10-68.48,96.13-57.94,106.67,0,0-52.68,25-5.27,65.84,0,0,36.87,11.85,27.66,36.87S166.33,604,184.77,608s-2.64,38.19-6.59,38.19-10.53,29,14.49,31.6,52.68,159.35,266,154.08,289.72-76.38,326.59-204.12C785.28,627.73,844.54,643.53,798.45,518.43Z"/></g><g class="cls-6"><path id="Coeur2" class="cls-7" d="M520.38,471.61a96,96,0,0,0-116.61,8.21c-69.86,61.81-168.67,182.54-52,301.07,166.72,169.4,254.11-5.83,254.11-5.83S710.26,597.32,520.38,471.61Z"/><path id="Coeur2-2" data-name="Coeur2" class="cls-8" d="M556.31,331.35A141.05,141.05,0,0,0,385,343.41c-102.65,90.83-247.82,268.2-76.43,442.35,244.94,248.9,373.34-8.56,373.34-8.56S835.29,516.06,556.31,331.35Z"/></g><g id="Oeil_D" data-name="Oeil D"><circle class="cls-9" cx="614.74" cy="604.69" r="51.36"/><circle class="cls-10" cx="613.42" cy="606" r="10.54"/></g><g id="Oeil_G" data-name="Oeil G"><circle class="cls-9" cx="336.87" cy="600.74" r="51.36"/><circle class="cls-10" cx="335.55" cy="602.05" r="10.54"/></g><path class="cls-11" d="M469.22,746.25s15.14,0,21.9,4.9a7.53,7.53,0,0,0,4.95,1.52c9.76-.71,37-4.21,3.42-20.52a51.13,51.13,0,0,0-13.59-4.36c-5.8-1-13.55-2.07-16.68-1.29h-.88c-3.12-.78-10.88.29-16.67,1.29a51.2,51.2,0,0,0-13.6,4.36c-33.55,16.31-6.34,19.81,3.43,20.52a7.5,7.5,0,0,0,4.94-1.52c6.76-4.9,21.9-4.9,21.9-4.9Z"/></g></g></svg>