<svg id="Calque_3" data-name="Calque 3" xmlns="http://www.w3.org/2000/svg" xmlns:xlink="http://www.w3.org/1999/xlink" viewBox="0 0 751 754"><defs><style>.cls-1,.cls-13,.cls-20{fill:none;}.cls-10,.cls-2{fill:#933132;}.cls-13,.cls-2{stroke:#933132;}.cls-12,.cls-13,.cls-14,.cls-15,.cls-19,.cls-2,.cls-20,.cls-21,.cls-24,.cls-25,.cls-26,.cls-27,.cls-3,.cls-5,.cls-7,.cls-8{stroke-miterlimit:10;}.cls-17,.cls-3{fill:#d2bfa1;}.cls-20,.cls-3{stroke:#d2bfa1;}.cls-4{clip-path:url(#clip-path);}.cls-5{stroke:#000;}.cls-6{clip-path:url(#clip-path-2);}.cls-15,.cls-7{fill:#99846f;}.cls-7{stroke:#47473b;}.cls-26,.cls-8{fill:#1a1a1a;}.cls-21,.cls-24,.cls-25,.cls-8{stroke:#1a1a1a;}.cls-9{clip-path:url(#clip-path-3);}.cls-11{clip-path:url(#clip-path-4);}.cls-12{fill:#832a2e;stroke:#832a2e;}.cls-14{fill:#bc6657;stroke:#bc6657;}.cls-15{stroke:#99846f;}.cls-16{clip-path:url(#clip-path-5);}.cls-18{clip-path:url(#clip-path-6);}.cls-19{fill:#ad997e;stroke:#ad997e;}.cls-21{fill:#9c3e3f;}.cls-22{clip-path:url(#clip-path-7);}.cls-23{fill:#822c2d;}.cls-24{fill:#e6d9ad;}.cls-25,.cls-27{fill:#cf8c46;}.cls-26,.cls-27{stroke:#333;}</style><clipPath id="clip-path"><rect class="cls-1" width="751" height="754"/></clipPath><clipPath id="clip-path-2"><rect id="Masque" class="cls-1" x="-2" y="-6.5" width="751" height="969"/></clipPath><clipPath id="clip-path-3"><path id="Masque-2" data-name="Masque" class="cls-1" d="M432,278S419.6,136.82,505.67,90.17a20.77,20.77,0,0,1,24.41,3.26C544,107.16,559,147.6,547,264Z"/></clipPath><clipPath id="clip-path-4"><path id="Rouge" class="cls-2" d="M452,265.5S442.19,138,510.23,95.81a14.88,14.88,0,0,1,19.3,2.94c11,12.4,23,62.09,13.47,167.25Z"/></clipPath><clipPath id="clip-path-5"><path class="cls-2" d="M225.17,300.35c-6-13.28-22.19-68,37.83-190.57a18.65,18.65,0,0,1,5-6.23c10.57-8.61,42.39-26.62,49,61.45,8,106,33,128,38,129s-95.19,19.5-113.59,17.25c-11.84-1.45-14.45-4.17-14.81-5.93A23.59,23.59,0,0,0,225.17,300.35Z"/></clipPath><clipPath id="clip-path-6"><path class="cls-3" d="M-6,168s50-16,81,9l-24,3s53,16,60,51,91,83,146,74c0,0-1-6-18-10,0,0,12-13,50-12,0,0-17-15-18-22,0,0,33,16,46,15,0,0-10-22-5-37,0,0,34,40,49,40s22,5,66-5c0,0,18-7,23-11s25-14,41-15c0,0-4,7-6,8s10,1,12-1c0,0,0,6-2,7,0,0-4,12-11,15s19,7,19,7,72,23,84,62,81,59,81,59,8,1,4-4-19-21-18-27c0,0,8,7,18,8s24-3,24-3,37-10,51,0,24,264,24,264-76,13-108-5-88.6-57.61-117.3-46.31S200.3,482.75,200.3,482.75,149,557,137,560v10s-44,18-55,32c0,0-4-6,8-18l4-45s-11,9-11,19a15.3,15.3,0,0,1-4-10c0-6-59,75-99,79S-66,230-66,230Z"/></clipPath><clipPath id="clip-path-7"><circle id="Masque-3" data-name="Masque" class="cls-1" cx="380" cy="521" r="182"/></clipPath></defs><title>Plan de travail 1</title><g class="cls-4"><rect id="Fond" class="cls-5" x="-2" y="-12" width="751" height="983"/><g class="cls-6"><g id="Dessin"><path class="cls-7" d="M-19,116s18,20,28,20,3-34,0-40c0,0,18-1,28,20s9-23-4-32c0,0,18-7,45,26,0,0-6-29,0-30,0,0,14,30,23,33,0,0-5-17,6-23,0,0,6,31,24,33s8-28,4-30c0,0,17-1,24,51,0,0-1-44,7-43,0,0,5,37,26,37,0,0,16-2,0-34,0,0,16,4,28,23,0,0,12,15,0-17,1-1,19,4,33,28l89-6s8-17,4-29c0,0,11,1,17,31s8-29,4-33c0,0,8-1,21,23,0,0,7-44,16-47,0,0,9,28,18,30s-5-24,8-41c0,0,8,19,18,24s-4-18,22-46c0,0,0,23,16,27,0,0-4-29,23-44,0,0,5,11,16,15s7-18,37-35c0,0,2,32,14,37s20-20,16-25c0,0,18,8,18,46,0,0,15-6,14-19,0,0,10,1,11,24,0,0,24-23,48-21a29.26,29.26,0,0,1-6,10c-4,4-2,13,38-15V79s16-25,27-23c0,0-16,18-16,26s23,16,40,1a14,14,0,0,1-5,12c-6,5,23-16,26-13,0,0-16,11-17,15s17,5,17,5,16-18,37-15c0,0-15,22-11,30s26-10,27-14c0,0,3,20-8,29,0,0,32-7,36-18,0,0,7,23-12,40s64,6,64,6-8,24-22,31c0,0,33-22,51-16,0,0-25,13-22,19s46,3,54-5c0,0-5,21-19,29,0,0,23,2,29,1,0,0-12,24-27,27s21,1,25-2c0,0-7,23-24,27,0,0,16,3,21,2,0,0,41,41,78,8S769,818,769,818s-28,2-38-15c0,0,2,28,33,55,0,0-47,1-83-32,0,0,25,37,21,44,0,0-28-26-42-30,0,0,6,15,12,16,0,0-23-5-24,0s17,12,22,12c0,0-24,14-45-11,0,0-4,7,13,17,0,0-13,4-21,1,0,0,1,16,11,20,0,0-25,5-45-13,0,0,7,21,18,30,0,0-8,6-36-21,0,0,2,14,8,17,0,0-27,1-49-34,0,0-7,25-2,35,0,0-7-1-20-20,0,0-7,21-2,38,0,0-29-15-32-39,0,0-7,11-3,19,0,0-15,1-25-16,0,0-2,24,2,30,0,0-30-14-31-23,0,0-3,15,0,21,0,0-24-11-23-21a52,52,0,0,1-6.14,7.91,1.51,1.51,0,0,1-2.54-1.13A7.17,7.17,0,0,0,375,898s-22,15-21,23c0,0-.79-13.38,7.41-22a1,1,0,0,0-1-1.68c-3.61.94-8.23,1.83-9.4.66-2-2-3,45-28,51,0,0,14.39-17.09-7.16-25.68a7.12,7.12,0,0,0-6.58.69c-4.31,2.86-12.81,7.29-19.26,3,0,0,17.51-14.74-2.32-15.93a5.69,5.69,0,0,0-4.32,1.62c-3.05,3-9.61,8.81-13.36,7.31,0,0,5-10-5-15s-28,25-37,22c-1-1,16-21,10-35,0,0-14,27-23,25,0,0,17-19,11-26,0,0-19,19-32,18,0,0,10-16,7-24,0,0-22,27-27,27s-23,6-26,12c0,0,12-21,4-26,0,0-34,38-45,35,0,0,13-10,7-15s-33,19-34,24c0,0,5-25,16-34,0,0-32,19-37,18,0,0,19-19,18-22,0,0-53,41-68,35,0,0,33-30,26-40,0,0-68,38-78,35S-169,618-169,618Z"/><g id="Oreille_G" data-name="Oreille G"><path id="Contour" class="cls-8" d="M432,278S419.6,136.82,505.67,90.17a20.77,20.77,0,0,1,24.41,3.26C544,107.16,559,147.6,547,264Z"/><g id="Coeur"><g class="cls-9"><g id="Rouge-2" data-name="Rouge"><path id="Rouge-3" data-name="Rouge" class="cls-10" d="M452,265.5S442.19,138,510.23,95.81a14.88,14.88,0,0,1,19.3,2.94c11,12.4,23,62.09,13.47,167.25Z"/><g class="cls-11"><path id="Sombre" class="cls-12" d="M493,287s51-118,35-215l64,128-33,83Z"/></g><path id="Rouge-4" data-name="Rouge" class="cls-13" d="M452,265.5S442.19,138,510.23,95.81a14.88,14.88,0,0,1,19.3,2.94c11,12.4,23,62.09,13.47,167.25Z"/></g></g></g><path id="Clair" class="cls-14" d="M460,263s2.68-132.26,19.87-98.57a37.87,37.87,0,0,1,3.81,12.92C485.16,190.2,481,249.47,473,259Z"/><path id="Meche" class="cls-15" d="M491.8,271.89,490,264s25,0,53-21c0,0-23,26-32,28"/></g><g id="Oreille_D" data-name="Oreille D"><path id="Contour-2" data-name="Contour" class="cls-8" d="M223.9,303.66s-34.59-51.24,37.63-197c7.75-15.64,26.71-22.5,42.39-14.84C323.25,101.28,350.23,130.18,361,209c2.72,19.94,0,43.2,1,70l-72,50Z"/><g id="Rouge-5" data-name="Rouge"><path class="cls-10" d="M225.17,300.35c-6-13.28-22.19-68,37.83-190.57a18.65,18.65,0,0,1,5-6.23c10.57-8.61,42.39-26.62,49,61.45,8,106,33,128,38,129s-95.19,19.5-113.59,17.25c-11.84-1.45-14.45-4.17-14.81-5.93A23.59,23.59,0,0,0,225.17,300.35Z"/><g class="cls-16"><path id="Foncé" class="cls-12" d="M287,290s24-85,24-181l33,147-23,23Z"/></g><path class="cls-13" d="M225.17,300.35c-6-13.28-22.19-68,37.83-190.57a18.65,18.65,0,0,1,5-6.23c10.57-8.61,42.39-26.62,49,61.45,8,106,33,128,38,129s-95.19,19.5-113.59,17.25c-11.84-1.45-14.45-4.17-14.81-5.93A23.59,23.59,0,0,0,225.17,300.35Z"/></g><path id="Clair-2" data-name="Clair" class="cls-14" d="M260.21,280l4.62-108.93a21.27,21.27,0,0,0-1.93-9.84c-2.79-6-8.16-12.08-14.9,6.78-10,28-26,57-3,135s24-7,24-7l-5.83-7.12A13.21,13.21,0,0,1,260.21,280Z"/></g><g id="Fourrure_1" data-name="Fourrure 1"><path class="cls-17" d="M-6,168s50-16,81,9l-24,3s53,16,60,51,91,83,146,74c0,0-1-6-18-10,0,0,12-13,50-12,0,0-17-15-18-22,0,0,33,16,46,15,0,0-10-22-5-37,0,0,34,40,49,40s22,5,66-5c0,0,18-7,23-11s25-14,41-15c0,0-4,7-6,8s10,1,12-1c0,0,0,6-2,7,0,0-4,12-11,15s19,7,19,7,72,23,84,62,81,59,81,59,8,1,4-4-19-21-18-27c0,0,8,7,18,8s24-3,24-3,37-10,51,0,24,264,24,264-76,13-108-5-88.6-57.61-117.3-46.31S200.3,482.75,200.3,482.75,149,557,137,560v10s-44,18-55,32c0,0-4-6,8-18l4-45s-11,9-11,19a15.3,15.3,0,0,1-4-10c0-6-59,75-99,79S-66,230-66,230Z"/><g class="cls-18"><path class="cls-19" d="M404,348s114-9,224,141c0,0,9-1,4-14,0,0,30,36,52,42,0,0-25-35-22-45,0,0,51,45,83,45s47,49,47,49l3,143L516,673Z"/></g><path class="cls-20" d="M-6,168s50-16,81,9l-24,3s53,16,60,51,91,83,146,74c0,0-1-6-18-10,0,0,12-13,50-12,0,0-17-15-18-22,0,0,33,16,46,15,0,0-10-22-5-37,0,0,34,40,49,40s22,5,66-5c0,0,18-7,23-11s25-14,41-15c0,0-4,7-6,8s10,1,12-1c0,0,0,6-2,7,0,0-4,12-11,15s19,7,19,7,72,23,84,62,81,59,81,59,8,1,4-4-19-21-18-27c0,0,8,7,18,8s24-3,24-3,37-10,51,0,24,264,24,264-76,13-108-5-88.6-57.61-117.3-46.31S200.3,482.75,200.3,482.75,149,557,137,560v10s-44,18-55,32c0,0-4-6,8-18l4-45s-11,9-11,19a15.3,15.3,0,0,1-4-10c0-6-59,75-99,79S-66,230-66,230Z"/></g><g id="Centre"><circle id="Base" class="cls-21" cx="380" cy="521" r="182"/><g class="cls-22"><path id="Ombre" class="cls-23" d="M296.68,360.68S379,338,434,489l50,78s7.92,12.49-13.54,14.25S387,583,387,583l-1.74,2.82S393,598,392,601s16.6,96.24,3.8,102.12S543,741,543,741l64-317L406,302Z"/><path id="Bande_H" data-name="Bande H" class="cls-24" d="M533,422.17S461.5,380,440.5,477c0,0-13,72-60,70H379c-47,2-60-70-60-70-21-97-92.5-54.83-92.5-54.83L193,401l54.49-5.23S312,380,325,430s32,91,54,91h1.49c22,0,41-41,54-91S512,395.77,512,395.77l49,.23Z"/><path id="Bande_B" data-name="Bande B" class="cls-24" d="M224.31,616.13S248,622,274,616s66-30,105-30h1.31c39,0,79,24,105,30s49.69.13,49.69.13L586,608l-36-22.19S525.44,594,491.44,587s-66-29-112-29H379c-46,0-78,22-112,29s-58.56-1.19-58.56-1.19L177,600Z"/></g><g id="Oeil_D" data-name="Oeil D"><path id="Trait_H" data-name="Trait H" class="cls-8" d="M229.59,468.09S228,445,230,445,240.23,462,240.23,462,241.18,474.19,229.59,468.09Z"/><path id="Trait_B" data-name="Trait B" class="cls-8" d="M291.77,554.63S299,562,304,563s-4.9-14.76-4.9-14.76S289.54,543.25,291.77,554.63Z"/><circle id="Base-2" data-name="Base" class="cls-25" cx="263" cy="510" r="53"/><circle id="Pupille" class="cls-26" cx="260.5" cy="509.5" r="32.5"/></g><g id="Oeil_G" data-name="Oeil G"><path id="Trait_H-2" data-name="Trait H" class="cls-8" d="M529.41,468.09S531,445,529,445,518.77,462,518.77,462,517.82,474.19,529.41,468.09Z"/><path id="Trait_B-2" data-name="Trait B" class="cls-8" d="M467.23,554.63S460,562,455,563s4.9-14.76,4.9-14.76S469.46,543.25,467.23,554.63Z"/><circle id="Base-3" data-name="Base" class="cls-25" cx="496" cy="510" r="53"/><circle id="Pupille-2" data-name="Pupille" class="cls-26" cx="498.5" cy="509.5" r="32.5"/></g><g id="Bouche"><circle id="Base-4" data-name="Base" class="cls-27" cx="379.5" cy="650.5" r="50.5"/><circle id="Bouche-2" data-name="Bouche" class="cls-26" cx="378.75" cy="654.75" r="23.75"/></g></g></g></g></g></svg>