<svg xmlns="http://www.w3.org/2000/svg" xmlns:xlink="http://www.w3.org/1999/xlink" viewBox="0 0 567.44 538.03"><defs><style>.cls-1,.cls-13,.cls-18,.cls-33,.cls-5{fill:none;}.cls-10,.cls-2{fill:#272a33;}.cls-13,.cls-2,.cls-33,.cls-6,.cls-7{stroke:#000;}.cls-13,.cls-17,.cls-18,.cls-19,.cls-2,.cls-23,.cls-26,.cls-27,.cls-28,.cls-3,.cls-30,.cls-33,.cls-4,.cls-5,.cls-6,.cls-7{stroke-miterlimit:10;}.cls-13,.cls-2{stroke-width:1.5px;}.cls-14,.cls-3{fill:#977657;}.cls-17,.cls-18,.cls-19,.cls-23,.cls-26,.cls-27,.cls-28,.cls-3,.cls-4,.cls-5{stroke:#1a1a1a;}.cls-20,.cls-4{fill:#4b67a8;}.cls-17,.cls-18,.cls-19,.cls-26,.cls-27,.cls-4{stroke-width:0.75px;}.cls-12,.cls-26,.cls-6{fill:#1a1a1a;}.cls-8{clip-path:url(#clip-path);}.cls-9{fill:#0f0f0f;}.cls-11{clip-path:url(#clip-path-2);}.cls-15{clip-path:url(#clip-path-3);}.cls-16{fill:#5e4833;}.cls-17{fill:#4eade7;}.cls-19{fill:#ffd3e2;}.cls-21{clip-path:url(#clip-path-4);}.cls-22{fill:#394a78;}.cls-23{fill:#fdfdf1;}.cls-24{clip-path:url(#clip-path-5);}.cls-25{fill:#ccc;}.cls-27{fill:#fafafa;}.cls-28{fill:#c07242;}.cls-29{clip-path:url(#clip-path-6);}.cls-30{fill:#b36c74;stroke:#b36c74;}.cls-31{opacity:0.5;}.cls-32{clip-path:url(#clip-path-7);}</style><clipPath id="clip-path"><rect class="cls-1" width="567.44" height="538.03"/></clipPath><clipPath id="clip-path-2"><path class="cls-2" d="M352,375l46-3s-4,9,5,9c0,0-6,12,15,10,0,0,1,14,163,9v5s48-1,57-5,51,1,51,1,24,5,38-4l-19.5,33.5s-7,12-10,14,3,17,8,18-16,0-16,0,17,17,18,25c0,0-47-8-59-11s-25-10-60-9c0,0-10,2-15,6l-171-1s-3,112-57,167c0,0,5,14,1,18,0,0,49,21,69,68,0,0,71-22,117,62,0,0,52-11,79,6,0,0-15-1-28,12,0,0-2,3,0,4s11,0,16,8h18s2,8-20,8c0,0-12,13-26,14,0,0-25-6-34-1a14.63,14.63,0,0,0,3,5h-15s12,21,10,30c0,0-11-8-13-8,0,0-1,1,0,4,0,0-5,0-6-1s1,8,3,9-15-6-31-4c0,0-1,4,0,6,0,0-12-1-13,1s0,4,3,6c0,0-10,4-19,3s-29,4-29,4-7,5-62-31c0,0-7-6,1,12,0,0-5-1-14-13,0,0-3,3,2,14,0,0-15-14-15-16s-6-13-23-12l-1-6a100.72,100.72,0,0,0-29-4s54,53-1,88c0,0-9,7-10,17s-20,21-25,18c0-2,6-7,6-11,0-3-8.09-.3-12,1.19a.76.76,0,0,1-.93-1.09c2.57-4.5,8.69-15.51,7.9-17.1-1-2-24-5-69,48h-10s8-5,8-7-8-1-8-1,7-11-14-3c0,0-13,5-9-9,0,0-6-2-11,1,0,0-1-9,2-14,0,0,2-2-4-2,0,0-3-5,1-8,0,0-17-5,3-16,0,0-9-2-15,3,0,0,3-14-7-14v-4s7,1,9,0,29-28,30-37c0,0,11-13,29-14,0,0,8-5-11-33,0,0-54,45-111,52,0,0-9,7-18,7s-14-2-14-2-12-3-24,1-23-2-23-2,11-16,26-17c0,0,8-2,8-6,0,0-67,11-116,1,0,0-14-4-42,1,0,0,1-6,18-8,0,0,5-7-17,0,0,0,3-7,10-8,0,0,1-3-18,1,0,0-3-2,9-12s-9-12-11-9c0,0,2-9,10-13,0,0-28-24-27-35h5s-10-25-5-57c0,0,9,23,14,26s7,1,7,1,8,8,14,8,5-7-15-11c0,0,16-8,36,0,0,0,16-16,67-14,0,0,6,5,22,0s73-7,73-7,49-70,109-84l-6-50s-29-86-12-132c0,0-24-8-57-8s-57,0-64-5c0,0-2,2,1,4s-25,2-47-3-53-6-81,1-23-80-23-80,37,9,44,8c0,0-1-4-3-4s71,4,90,12,31-3,31-3,73-17,101,5c0,0,5.84,5,20.59-10.91a6.76,6.76,0,0,1,9.54-.35l7.87,7.26s45-34,63-9,23.29,18.12,23.29,18.12l58.26,5.48Z"/></clipPath><clipPath id="clip-path-3"><polygon id="Cou" class="cls-3" points="290 310.99 288 390.99 304 390.99 306 310.99 290 310.99"/></clipPath><clipPath id="clip-path-4"><path class="cls-4" d="M289,389.84l-32-18.31a4.8,4.8,0,0,0-2-.61l-2.45-.64a17,17,0,0,0-6-.48l-3.31.34a3.4,3.4,0,0,0-3.24,1.8c-3.26,6.2-11.82,26.35,1.13,47.29a3.49,3.49,0,0,0,4,1.49c8.21-2.53,34.21-10.85,44.39-17.48a2.89,2.89,0,0,1,2.33-.35,10.6,10.6,0,0,0,5.3.25,3.93,3.93,0,0,1,3.2.6,86.39,86.39,0,0,0,45,13.73,4.36,4.36,0,0,0,3.66-1.87c3.85-5.47,13.62-22.19,6.73-43a4.72,4.72,0,0,0-4.8-3.21c-6.61.42-22.31,3.51-48.22,20.62a4.22,4.22,0,0,1-4.07.3,7.5,7.5,0,0,0-5.87-.35A4.28,4.28,0,0,1,289,389.84Z"/></clipPath><clipPath id="clip-path-5"><path id="Visage" class="cls-5" d="M252.5,215.49s-27,25-21,57,39,44,66,43,93-15,79-80c0,0-4-23-19-31l-45-25Z"/></clipPath><clipPath id="clip-path-6"><path id="Haut_de_forme" data-name="Haut de forme" class="cls-1" d="M259.5,77.49s73,16,125,10c0,0-20,104-17,115,0,0-14.65,3.67-23.51,7a96.51,96.51,0,0,1-25.91,5.84c-23.17,1.85-60.52,3.89-74.58-.8C243.5,214.49,266.5,143.49,259.5,77.49Z"/></clipPath><clipPath id="clip-path-7"><path id="Capot" class="cls-6" d="M441,14c-14.09,3.55-37.12,11.55-52.81,28.15A40.25,40.25,0,0,0,377.14,72.9C377.62,79,379.5,85,384.5,87.49c11.25,5.63,86.66-4.57,73-63.54A13.48,13.48,0,0,0,441,14Z"/></clipPath></defs><title>Plan de travail 1</title><g id="Modèle"><rect class="cls-7" x="-229.5" y="-140.51" width="951" height="1332"/></g><g id="Portofolio"><g class="cls-8"><rect class="cls-9" x="-97.45" y="-31.01" width="747.44" height="708.7"/><g id="Manteau"><path class="cls-10" d="M352,375l46-3s-4,9,5,9c0,0-6,12,15,10,0,0,1,14,163,9v5s48-1,57-5,51,1,51,1,24,5,38-4l-19.5,33.5s-7,12-10,14,3,17,8,18-16,0-16,0,17,17,18,25c0,0-47-8-59-11s-25-10-60-9c0,0-10,2-15,6l-171-1s-3,112-57,167c0,0,5,14,1,18,0,0,49,21,69,68,0,0,71-22,117,62,0,0,52-11,79,6,0,0-15-1-28,12,0,0-2,3,0,4s11,0,16,8h18s2,8-20,8c0,0-12,13-26,14,0,0-25-6-34-1a14.63,14.63,0,0,0,3,5h-15s12,21,10,30c0,0-11-8-13-8,0,0-1,1,0,4,0,0-5,0-6-1s1,8,3,9-15-6-31-4c0,0-1,4,0,6,0,0-12-1-13,1s0,4,3,6c0,0-10,4-19,3s-29,4-29,4-7,5-62-31c0,0-7-6,1,12,0,0-5-1-14-13,0,0-3,3,2,14,0,0-15-14-15-16s-6-13-23-12l-1-6a100.72,100.72,0,0,0-29-4s54,53-1,88c0,0-9,7-10,17s-20,21-25,18c0-2,6-7,6-11,0-3-8.09-.3-12,1.19a.76.76,0,0,1-.93-1.09c2.57-4.5,8.69-15.51,7.9-17.1-1-2-24-5-69,48h-10s8-5,8-7-8-1-8-1,7-11-14-3c0,0-13,5-9-9,0,0-6-2-11,1,0,0-1-9,2-14,0,0,2-2-4-2,0,0-3-5,1-8,0,0-17-5,3-16,0,0-9-2-15,3,0,0,3-14-7-14v-4s7,1,9,0,29-28,30-37c0,0,11-13,29-14,0,0,8-5-11-33,0,0-54,45-111,52,0,0-9,7-18,7s-14-2-14-2-12-3-24,1-23-2-23-2,11-16,26-17c0,0,8-2,8-6,0,0-67,11-116,1,0,0-14-4-42,1,0,0,1-6,18-8,0,0,5-7-17,0,0,0,3-7,10-8,0,0,1-3-18,1,0,0-3-2,9-12s-9-12-11-9c0,0,2-9,10-13,0,0-28-24-27-35h5s-10-25-5-57c0,0,9,23,14,26s7,1,7,1,8,8,14,8,5-7-15-11c0,0,16-8,36,0,0,0,16-16,67-14,0,0,6,5,22,0s73-7,73-7,49-70,109-84l-6-50s-29-86-12-132c0,0-24-8-57-8s-57,0-64-5c0,0-2,2,1,4s-25,2-47-3-53-6-81,1-23-80-23-80,37,9,44,8c0,0-1-4-3-4s71,4,90,12,31-3,31-3,73-17,101,5c0,0,5.84,5,20.59-10.91a6.76,6.76,0,0,1,9.54-.35l7.87,7.26s45-34,63-9,23.29,18.12,23.29,18.12l58.26,5.48Z"/><g class="cls-11"><path class="cls-12" d="M-100.5,423.49s56-2,61,1,37,6,43,2,28-2,32,1,48,4,56,2,16,1,16,1,12,3,2-4,4-8,13,2c0,0,11,3,15,1s2-23,2-23,2-10,5,0c0,0-1,25,1,28s8,16,11,15c0,0,2,6,0,8s-5-5-12-4-78,4-78,4l-105-7-84,12-17-21,8-20S-112.5,424.49-100.5,423.49Z"/><path class="cls-12" d="M702,437s-26,17-49,15-23-2-43,0-65,8-78,3-47-6-60,1-66.5,3.5-66.5,3.5,2-11,12-13c0,0-9-4-19,5,0,0-3-3,4-18,0,0-7-2-15,18,0,0,4,93-60,182,0,0,6,20,8,36,0,0,25,21,26,24,0,0,15-2,36,35,0,0,8,16,25,2s55-47,55-47l139-150,65-8,45-29Z"/></g><path class="cls-13" d="M352,375l46-3s-4,9,5,9c0,0-6,12,15,10,0,0,1,14,163,9v5s48-1,57-5,51,1,51,1,24,5,38-4l-19.5,33.5s-7,12-10,14,3,17,8,18-16,0-16,0,17,17,18,25c0,0-47-8-59-11s-25-10-60-9c0,0-10,2-15,6l-171-1s-3,112-57,167c0,0,5,14,1,18,0,0,49,21,69,68,0,0,71-22,117,62,0,0,52-11,79,6,0,0-15-1-28,12,0,0-2,3,0,4s11,0,16,8h18s2,8-20,8c0,0-12,13-26,14,0,0-25-6-34-1a14.63,14.63,0,0,0,3,5h-15s12,21,10,30c0,0-11-8-13-8,0,0-1,1,0,4,0,0-5,0-6-1s1,8,3,9-15-6-31-4c0,0-1,4,0,6,0,0-12-1-13,1s0,4,3,6c0,0-10,4-19,3s-29,4-29,4-7,5-62-31c0,0-7-6,1,12,0,0-5-1-14-13,0,0-3,3,2,14,0,0-15-14-15-16s-6-13-23-12l-1-6a100.72,100.72,0,0,0-29-4s54,53-1,88c0,0-9,7-10,17s-20,21-25,18c0-2,6-7,6-11,0-3-8.09-.3-12,1.19a.76.76,0,0,1-.93-1.09c2.57-4.5,8.69-15.51,7.9-17.1-1-2-24-5-69,48h-10s8-5,8-7-8-1-8-1,7-11-14-3c0,0-13,5-9-9,0,0-6-2-11,1,0,0-1-9,2-14,0,0,2-2-4-2,0,0-3-5,1-8,0,0-17-5,3-16,0,0-9-2-15,3,0,0,3-14-7-14v-4s7,1,9,0,29-28,30-37c0,0,11-13,29-14,0,0,8-5-11-33,0,0-54,45-111,52,0,0-9,7-18,7s-14-2-14-2-12-3-24,1-23-2-23-2,11-16,26-17c0,0,8-2,8-6,0,0-67,11-116,1,0,0-14-4-42,1,0,0,1-6,18-8,0,0,5-7-17,0,0,0,3-7,10-8,0,0,1-3-18,1,0,0-3-2,9-12s-9-12-11-9c0,0,2-9,10-13,0,0-28-24-27-35h5s-10-25-5-57c0,0,9,23,14,26s7,1,7,1,8,8,14,8,5-7-15-11c0,0,16-8,36,0,0,0,16-16,67-14,0,0,6,5,22,0s73-7,73-7,49-70,109-84l-6-50s-29-86-12-132c0,0-24-8-57-8s-57,0-64-5c0,0-2,2,1,4s-25,2-47-3-53-6-81,1-23-80-23-80,37,9,44,8c0,0-1-4-3-4s71,4,90,12,31-3,31-3,73-17,101,5c0,0,5.84,5,20.59-10.91a6.76,6.76,0,0,1,9.54-.35l7.87,7.26s45-34,63-9,23.29,18.12,23.29,18.12l58.26,5.48Z"/></g><g id="Color"><g id="Cou-2" data-name="Cou"><polygon id="Cou-3" data-name="Cou" class="cls-14" points="290 310.99 288 390.99 304 390.99 306 310.99 290 310.99"/><g class="cls-15"><path id="Ombre" class="cls-16" d="M287.5,360.49s7-12,20,0,14-41,14-41l-16-18-24-3-12,49Z"/></g><polygon id="Cou-4" data-name="Cou" class="cls-5" points="290 310.99 288 390.99 304 390.99 306 310.99 290 310.99"/></g><path class="cls-5" d="M271,527s-16,16-14,25"/><path class="cls-5" d="M241,385l-23,26,11,9-15,32,57,75s64-33,66-37,28-30,28-30l-21-26,16-17-15-26Z"/><g id="Chemise"><path class="cls-17" d="M246.5,403.49v40s5,29,27,74c0,0,53-20,59-104l-39-18Z"/><circle id="Bouton" class="cls-18" cx="287.5" cy="472.49" r="4"/><circle id="Bouton-2" data-name="Bouton" class="cls-18" cx="286.5" cy="493.49" r="4"/></g><path class="cls-19" d="M279,363s-45,21-2,82c0,0,8.5,9.5,11.5,10.5s55-57,32-92l-25,29Z"/><g id="Ruban"><path class="cls-20" d="M289,389.84l-32-18.31a4.8,4.8,0,0,0-2-.61l-2.45-.64a17,17,0,0,0-6-.48l-3.31.34a3.4,3.4,0,0,0-3.24,1.8c-3.26,6.2-11.82,26.35,1.13,47.29a3.49,3.49,0,0,0,4,1.49c8.21-2.53,34.21-10.85,44.39-17.48a2.89,2.89,0,0,1,2.33-.35,10.6,10.6,0,0,0,5.3.25,3.93,3.93,0,0,1,3.2.6,86.39,86.39,0,0,0,45,13.73,4.36,4.36,0,0,0,3.66-1.87c3.85-5.47,13.62-22.19,6.73-43a4.72,4.72,0,0,0-4.8-3.21c-6.61.42-22.31,3.51-48.22,20.62a4.22,4.22,0,0,1-4.07.3,7.5,7.5,0,0,0-5.87-.35A4.28,4.28,0,0,1,289,389.84Z"/><g class="cls-21"><path class="cls-18" d="M296,408c6-8,1-23,1-23h-4s-5,15,1,23Z"/><line class="cls-18" x1="280.5" y1="396.49" x2="291.01" y2="396.15"/><line class="cls-18" x1="308.5" y1="394.49" x2="299.38" y2="395.53"/><path id="Ombre-2" data-name="Ombre" class="cls-22" d="M340.5,361.49s9,45-8,47-34,4-40,2,65,29,65,29l7-43,1-28Z"/></g><path class="cls-18" d="M289,389.84l-32-18.31a4.8,4.8,0,0,0-2-.61l-2.45-.64a17,17,0,0,0-6-.48l-3.31.34a3.4,3.4,0,0,0-3.24,1.8c-3.26,6.2-11.82,26.35,1.13,47.29a3.49,3.49,0,0,0,4,1.49c8.21-2.53,34.21-10.85,44.39-17.48a2.89,2.89,0,0,1,2.33-.35,10.6,10.6,0,0,0,5.3.25,3.93,3.93,0,0,1,3.2.6,86.39,86.39,0,0,0,45,13.73,4.36,4.36,0,0,0,3.66-1.87c3.85-5.47,13.62-22.19,6.73-43a4.72,4.72,0,0,0-4.8-3.21c-6.61.42-22.31,3.51-48.22,20.62a4.22,4.22,0,0,1-4.07.3,7.5,7.5,0,0,0-5.87-.35A4.28,4.28,0,0,1,289,389.84Z"/></g></g><g id="Tête"><path id="Coté_chapeau" data-name="Coté chapeau" class="cls-6" d="M367.5,202.49s56-9,50,9-38,23-41,23-142,10-142,10-40,3-45-20,54-10,54-10l75-17Z"/><g id="Visage-2" data-name="Visage"><path id="Visage-3" data-name="Visage" class="cls-23" d="M252.5,215.49s-27,25-21,57,39,44,66,43,93-15,79-80c0,0-4-23-19-31l-45-25Z"/><g class="cls-24"><path id="Ombre-3" data-name="Ombre" class="cls-25" d="M351.23,207.69S364,283,344,304l45,11,25-64-33-62"/></g><path id="Visage-4" data-name="Visage" class="cls-5" d="M252.5,215.49s-27,25-21,57,39,44,66,43,93-15,79-80c0,0-4-23-19-31l-45-25Z"/><circle id="Oeil_G" data-name="Oeil G" class="cls-26" cx="261.5" cy="232.49" r="5"/><circle id="Oeil_D" data-name="Oeil D" class="cls-26" cx="349.5" cy="236.49" r="5"/><g id="Bouche"><path id="Bouche-2" data-name="Bouche" class="cls-27" d="M236.87,272.56a2.71,2.71,0,0,0-.9,4c5.46,7.26,26.1,31.07,62.53,31.91,35.92.84,60-22.76,66.93-30.54a3,3,0,0,0-.6-4.47c-3.29-2.06-9.64-5-19.33-5h-86S243.4,269.22,236.87,272.56Z"/><line id="Dent" class="cls-18" x1="259.5" y1="268.49" x2="258.5" y2="296.49"/><line id="Dent-2" data-name="Dent" class="cls-18" x1="301.5" y1="268.49" x2="298.5" y2="308.49"/><line id="Dent-3" data-name="Dent" class="cls-18" x1="345.5" y1="268.49" x2="345.5" y2="294.84"/></g><path id="Pipe" class="cls-28" d="M363.4,272.78l56.3,18.46a2.7,2.7,0,0,0,3.3-1.44l2.91-6.42a2.7,2.7,0,0,1,3.5-1.37l14,5.9a2.69,2.69,0,0,1,1.4,3.61l-9.69,21a2.7,2.7,0,0,1-3.6,1.31l-14.17-6.71a2.69,2.69,0,0,1-1.3-3.53l1.72-3.89a2.69,2.69,0,0,0-1.61-3.65L361.71,277.9a2.7,2.7,0,0,1-1.65-3.56h0A2.7,2.7,0,0,1,363.4,272.78Z"/></g><g id="Bandeau"><g class="cls-29"><path id="Haut_de_forme-2" data-name="Haut de forme" class="cls-6" d="M259.5,77.49s73,16,125,10c0,0-20,104-17,115,0,0-14.65,3.67-23.51,7a96.51,96.51,0,0,1-25.91,5.84c-23.17,1.85-60.52,3.89-74.58-.8C243.5,214.49,266.5,143.49,259.5,77.49Z"/><path id="Bandeau-2" data-name="Bandeau" class="cls-30" d="M236.5,213.49l14-20s42-22,116-3l6,7-1,8-23,22-54,5-55-9Z"/><polygon class="cls-31" points="335 210.99 372 79.99 404 99.99 415 146.99 383 194.99 389 224.99 336 217.99 335 210.99"/></g></g><path id="Capot-2" data-name="Capot" class="cls-12" d="M441,14c-14.09,3.55-37.12,11.55-52.81,28.15A40.25,40.25,0,0,0,377.14,72.9C377.62,79,379.5,85,384.5,87.49c11.25,5.63,86.66-4.57,73-63.54A13.48,13.48,0,0,0,441,14Z"/><g class="cls-32"><path class="cls-31" d="M365,83s36-1,48-15,43-33,34-60,71,10,71,10L502,85l-60,25-63,8Z"/></g><path id="Capot-3" data-name="Capot" class="cls-33" d="M441,14c-14.09,3.55-37.12,11.55-52.81,28.15A40.25,40.25,0,0,0,377.14,72.9C377.62,79,379.5,85,384.5,87.49c11.25,5.63,86.66-4.57,73-63.54A13.48,13.48,0,0,0,441,14Z"/></g></g></g></svg>