<svg xmlns="http://www.w3.org/2000/svg" viewBox="0 0 748 748"><defs><style>.cls-1,.cls-3,.cls-5{stroke:#000;}.cls-1,.cls-3,.cls-4,.cls-5,.cls-6,.cls-7{stroke-miterlimit:10;}.cls-1,.cls-3{stroke-width:3px;}.cls-2{fill:#fff;}.cls-3{fill:none;}.cls-4{fill:#535353;}.cls-4,.cls-7{stroke:#535353;}.cls-6{fill:#a27fa3;stroke:#a27fa3;}.cls-7{fill:#4d4d4d;}</style></defs><title>Fichier 1</title><g id="Calque_2" data-name="Calque 2"><g id="Fond_d_écran_visage_fond_noir" data-name="Fond d&apos;écran visage + fond noir"><rect id="Fond_noir_carre" data-name="Fond noir carre" class="cls-1" x="1.5" y="1.5" width="745" height="745"/><g id="Visage"><g id="Tête"><path class="cls-2" d="M374.47,678c-67.84-1.88-133.79-32-165.82-310.92S371.48,75.2,371.48,75.2l3.12-.2,3.13.2s194.86,13,162.83,291.88-98,309-165.83,310.92"/><path class="cls-3" d="M374.47,678c-67.84-1.88-133.79-32-165.82-310.92S371.48,75.2,371.48,75.2l3.12-.2,3.13.2s194.86,13,162.83,291.88-98,309-165.83,310.92"/></g><path id="Tache_2_D" data-name="Tache 2 D" class="cls-4" d="M453.42,342.58h49.32s1.88,18.85-24.5,18.85c-17.13,0-24.73-7.95-27.95-13.53A3.57,3.57,0,0,1,453.42,342.58Z"/><ellipse id="Oeil_D" data-name="Oeil D" class="cls-5" cx="472.46" cy="312.43" rx="43.34" ry="18.84"/><path id="Tache_1_G" data-name="Tache 1 G" class="cls-6" d="M310.4,219.47V151.13a2.51,2.51,0,0,0-3.9-2.1c-10.68,7.19-39.5,30.38-37.7,70.57a2.52,2.52,0,0,0,2.52,2.38h36.57A2.51,2.51,0,0,0,310.4,219.47Z"/><path id="Tache_1_D" data-name="Tache 1 D" class="cls-6" d="M437.6,220.41V152.07a2.5,2.5,0,0,1,3.9-2.09c10.68,7.18,39.5,30.38,37.7,70.56a2.52,2.52,0,0,1-2.52,2.38H440.11A2.51,2.51,0,0,1,437.6,220.41Z"/><ellipse id="Oeil_G" data-name="Oeil G" class="cls-5" cx="272.72" cy="312.43" rx="43.34" ry="18.84"/><path id="Tache_2_G" data-name="Tache 2 G" class="cls-7" d="M291.88,342.58H242.57s-1.89,18.85,24.49,18.85c17.14,0,24.73-7.95,27.95-13.53A3.57,3.57,0,0,0,291.88,342.58Z"/><path id="Tache_3_D" data-name="Tache 3 D" class="cls-6" d="M473.4,501.07V388.45a1.59,1.59,0,0,1,1.59-1.59h21s11.31,0,11.31,9.43c0,9.17,3.58,61.26-31.07,105.75A1.59,1.59,0,0,1,473.4,501.07Z"/><path id="Tache_3_G" data-name="Tache 3 G" class="cls-6" d="M275.65,501.07V388.45a1.59,1.59,0,0,0-1.59-1.59H253s-11.3,0-11.3,9.43c0,9.17-3.58,61.26,31.07,105.75A1.59,1.59,0,0,0,275.65,501.07Z"/><path id="Bouche_normal" data-name="Bouche normal" class="cls-5" d="M301.92,573.42c0-9.37,32.91-7.54,73.49-7.54s73.49-1.83,73.49,7.54-32.9,17-73.49,17S301.92,582.78,301.92,573.42Z"/><path id="Tache_4" data-name="Tache 4" class="cls-6" d="M345.26,635.6c0,3.12,12.66,5.65,28.27,5.65s28.27-2.53,28.27-5.65-12.66-3.77-28.27-3.77S345.26,632.48,345.26,635.6Z"/></g></g></g></svg>