<svg xmlns="http://www.w3.org/2000/svg" xmlns:xlink="http://www.w3.org/1999/xlink" viewBox="0 0 227.42 176.27"><defs><style>.cls-1{stroke-miterlimit:10;fill:url(#Dégradé_bleu);stroke:url(#Dégradé_bleu-2);}</style><linearGradient id="Dégradé_bleu" x1="0.5" y1="88.14" x2="226.92" y2="88.14" gradientUnits="userSpaceOnUse"><stop offset="0" stop-color="#162984"/><stop offset="0.08" stop-color="#11328c"/><stop offset="0.22" stop-color="#034ca1"/><stop offset="0.25" stop-color="#0052a6"/><stop offset="0.5" stop-color="#0077b7"/><stop offset="0.75" stop-color="#0099bc"/><stop offset="0.99" stop-color="#00b9bc"/></linearGradient><linearGradient id="Dégradé_bleu-2" x1="0" y1="88.14" x2="227.42" y2="88.14" xlink:href="#Dégradé_bleu"/></defs><title>Fichier 2</title><g id="Calque_2" data-name="Calque 2"><g id="Calque_1-2" data-name="Calque 1"><path class="cls-1" d="M7,71.06H152s7-1,4-7l-35.5-35.5s-7.5-7.5,1.5-13.5l11-11s6-8,13,0,76.5,76.5,76.5,76.5,9.5,7.5.5,14.5-76.5,76.5-76.5,76.5-4.5,7.5-11.5,2.5l-13.5-13.5s-7-7,0-12,33-33,33-33,8-9-2-10-144,0-144,0-8,0-8-6v-23S-.46,70.56,7,71.06Z"/></g></g></svg>