<?xml version="1.0" encoding="utf-8"?>
<!-- Generator: Adobe Illustrator 22.0.1, SVG Export Plug-In . SVG Version: 6.00 Build 0)  -->
<svg version="1.1" id="Calque_1" xmlns="http://www.w3.org/2000/svg" xmlns:xlink="http://www.w3.org/1999/xlink" x="0px" y="0px"
	 viewBox="0 0 114.9 90.6" style="enable-background:new 0 0 114.9 90.6;" xml:space="preserve">
<style type="text/css">
	.st0{fill:#FFFFFF;}
	.st1{fill:#ED8523;}
</style>
<title>Fichier 2</title>
<g id="Calque_2_1_">
	<g id="Calque_1-2">
		<path class="st0" d="M19.2,43.1c-0.3-1.3-0.9-2.4-1.7-3.5c-0.4-0.5-0.9-1-1.5-1.4v3.2l-1,0.7v3.1l-0.9,1.2v-9.2
			c-1.4-0.5-2.9-0.7-4.4-0.7H7.1l0.1,2.3L7,38.7l-0.1-1.1H6.3v0.7L6,38.4v-0.7H5.7v1.6L5.5,39v-1.3H4.9v-1.1H2.8v5.6l-0.3-0.6v-5h-1
			v3.3l-0.3,0.6v-4H0V58h9.9c1.4,0,2.7-0.2,4-0.6c1.1-0.3,2.2-0.9,3-1.7c0.9-0.9,1.7-2,2.1-3.2c0.6-1.7,0.9-3.5,0.8-5.3
			C19.8,45.8,19.6,44.4,19.2,43.1z M12.6,51.1c-0.3,0.7-0.7,1.3-1.4,1.6c-1,0.4-2,0.5-3,0.5H6.6V41.5h1.7c1.4-0.1,2.7,0.3,3.7,1.3
			c0.7,0.8,1.1,2.4,1.1,4.7C13.2,48.6,13,49.9,12.6,51.1L12.6,51.1z"/>
		<ellipse class="st0" cx="38" cy="45.3" rx="20.9" ry="45.3"/>
		<path class="st0" d="M73.3,58V36.6h11.1c1.6-0.1,3.2,0.1,4.7,0.5c1.1,0.4,2,1.1,2.6,2c0.7,1,1,2.2,1,3.5c0.1,2.1-1,4.1-2.9,5.2
			c-0.7,0.4-1.5,0.7-2.3,0.8c0.6,0.2,1.2,0.4,1.7,0.8c0.4,0.3,0.7,0.7,1.1,1.1c0.3,0.4,0.7,0.9,0.9,1.3l3.2,6.2h-7.5l-3.5-6.6
			c-0.3-0.6-0.7-1.2-1.2-1.7c-0.5-0.3-1-0.5-1.6-0.5H80v8.7L73.3,58z M80,45.3h2.8c0.6,0,1.2-0.1,1.7-0.3c0.4-0.1,0.8-0.3,1.1-0.7
			c0.3-0.4,0.4-0.8,0.4-1.3c0-0.6-0.2-1.2-0.7-1.6c-0.7-0.5-1.6-0.7-2.5-0.6H80V45.3z"/>
		<path class="st0" d="M95.4,51l6.3-0.4c0.1,0.8,0.4,1.6,0.8,2.3c0.7,0.9,1.8,1.4,2.9,1.3c0.8,0.1,1.6-0.2,2.2-0.7
			c0.5-0.4,0.8-0.9,0.8-1.5c0-0.6-0.3-1.1-0.7-1.5c-1-0.7-2.2-1.1-3.4-1.2c-2.2-0.4-4.4-1.3-6.2-2.6c-1.2-1-1.9-2.6-1.9-4.2
			c0-1.1,0.4-2.2,1-3.1c0.7-1,1.7-1.9,2.8-2.4c1.7-0.6,3.5-0.9,5.3-0.8c2.2-0.1,4.4,0.4,6.3,1.5c1.5,1.2,2.5,2.9,2.6,4.9l-6.2,0.4
			c-0.1-1.6-1.4-2.8-3-2.8c-0.1,0-0.1,0-0.2,0c-0.6,0-1.2,0.1-1.8,0.5c-0.4,0.3-0.6,0.7-0.6,1.2c0,0.4,0.2,0.7,0.5,0.9
			c0.7,0.4,1.4,0.7,2.2,0.8c2.1,0.4,4.2,1,6.2,1.9c1.1,0.5,2.1,1.3,2.8,2.4c0.6,1,0.9,2.1,0.9,3.2c0,1.4-0.4,2.7-1.2,3.8
			c-0.8,1.2-1.9,2.1-3.2,2.6c-1.6,0.7-3.4,1-5.2,0.9c-3.7,0-6.2-0.7-7.6-2.1C96.4,54.9,95.5,53,95.4,51z"/>
		<path class="st1" d="M41.8,39.1c-2-1.8-4.6-2.9-7.3-2.8V38l-1.3,1.7v-3.5l0,0v0.6h-1.3l-1.3,3.3l0.5-3.7c-1.2,0.2-2.3,0.5-3.4,1
			v5.3l-0.9,3.8v-6.9h-1.5v1.5l-1.1-0.6c-1.3,2-1.9,4.4-1.8,6.8c-0.1,2.2,0.4,4.4,1.5,6.3c0.9,1.6,2.2,2.9,3.9,3.7
			c1.9,0.8,3.9,1.2,6,1.2c2.1,0.1,4.1-0.4,6-1.3c1.6-0.9,2.8-2.2,3.7-3.8c0.9-1.9,1.3-4,1.3-6.2C44.7,43.7,43.7,41,41.8,39.1z
			 M36.8,52.1c-0.8,1-2,1.5-3.3,1.4c-1.3,0-2.5-0.5-3.3-1.5c-0.8-0.9-1.2-2.5-1.2-4.7s0.4-3.8,1.2-4.7c0.8-0.9,2-1.5,3.2-1.4
			c1.3-0.1,2.5,0.5,3.3,1.4c0.9,1.3,1.3,2.9,1.2,4.5C38,49.5,37.6,51.1,36.8,52.1L36.8,52.1z"/>
		<path class="st0" d="M66.7,39.1c-0.7-0.7-1.5-1.3-2.4-1.7v5l-0.4-1.5l0.3-3.6c-0.4-0.2-0.8-0.3-1.2-0.4v6.2l-1.2-0.5
			c0.9,1.3,1.4,2.9,1.2,4.4c0,2.4-0.4,4.1-1.2,5c-1.7,1.8-4.6,1.9-6.4,0.2c-0.1-0.1-0.1-0.1-0.2-0.2c-0.8-0.9-1.2-2.5-1.2-4.7
			s0.4-3.8,1.2-4.7c0.8-0.9,2-1.5,3.2-1.4c1.3-0.1,2.5,0.5,3.3,1.4v-6.1c-1.1-0.2-2.2-0.3-3.3-0.3c-1.6,0-3.2,0.2-4.8,0.7l-0.3,1.7
			l-0.8,1.3v-2.5c-0.9,0.4-1.7,1-2.4,1.7c-0.6,0.6-1.2,1.4-1.6,2.2l3.4,0.2v1.1h-4c-0.5,1.5-0.8,3.1-0.8,4.7
			c-0.1,2.2,0.4,4.4,1.5,6.3c0.9,1.6,2.2,2.9,3.9,3.7c1.9,0.8,3.9,1.2,6,1.2c2.1,0.1,4.1-0.4,6-1.3c1.6-0.9,2.8-2.2,3.7-3.8
			c0.9-1.9,1.4-4,1.3-6.2C69.7,43.7,68.7,41,66.7,39.1z"/>
		<path class="st1" d="M58.5,53.5c-1.3,0-2.5-0.5-3.3-1.5c-0.8-0.9-1.2-2.5-1.2-4.7s0.4-3.8,1.2-4.7c0.8-0.9,2-1.5,3.2-1.4h0.3
			c-0.1-1.7-0.2-3.4-0.3-5c-1.6,0-3.2,0.2-4.8,0.8l-0.3,1.7l-0.8,1.3v-2.5c-0.9,0.4-1.7,1-2.4,1.7c-0.6,0.6-1.2,1.4-1.6,2.2l3.4,0.2
			v1.1h-4c-0.5,1.5-0.8,3.1-0.8,4.7c-0.1,2.2,0.4,4.4,1.5,6.3c0.9,1.6,2.2,2.9,3.9,3.7c1.7,0.7,3.4,1.1,5.3,1.2
			C58.2,56.8,58.4,55.1,58.5,53.5L58.5,53.5z"/>
		<path class="st0" d="M62.6,62.3h3.4v1.2h-2.2v2.1h1.7v1.2h-1.7v2.5h2.2v1.2h-3.4V62.3z"/>
		<path class="st0" d="M66.6,68.4V68h1.2v0.6c0,0.6,0.3,0.8,0.7,0.8s0.7-0.2,0.7-0.8s-0.3-1.1-1.1-1.8c-0.8-0.6-1.4-1.5-1.4-2.5
			c-0.1-1,0.5-1.9,1.5-2c0.1,0,0.3,0,0.4,0c1.2,0,1.8,0.7,1.8,2v0.3h-1.2v-0.4c0-0.6-0.2-0.8-0.6-0.8s-0.6,0.2-0.6,0.8
			s0.3,1,1.1,1.7c0.9,0.6,1.4,1.5,1.4,2.6c0.1,1-0.6,1.9-1.6,2c-0.1,0-0.2,0-0.3,0C67.2,70.5,66.6,69.7,66.6,68.4z"/>
		<path class="st0" d="M71,68.5v-4.3c0-1,0.8-1.9,1.9-1.9s1.9,0.8,1.9,1.9V65h-1.2v-0.9c0-0.5-0.3-0.8-0.6-0.8s-0.6,0.2-0.6,0.8v4.5
			c0,0.5,0.3,0.7,0.6,0.7s0.6-0.2,0.6-0.7v-1.2h1.2v1.1c0,1-0.8,1.9-1.9,1.9S71,69.5,71,68.5L71,68.5z"/>
		<path class="st0" d="M76.5,62.3h1.7l1.3,8.1h-1.3L78,68.8l0,0h-1.4l-0.2,1.6h-1.2L76.5,62.3z M77.9,67.7l-0.6-4l0,0l-0.6,4H77.9z"
			/>
		<path class="st0" d="M80.1,62.3H82c1.3,0,1.9,0.7,1.9,2v0.8c0,1.3-0.6,2-1.9,2h-0.6v3.3h-1.3V62.3z M82,65.9
			c0.4,0,0.6-0.2,0.6-0.8v-1c0-0.6-0.2-0.8-0.6-0.8h-0.6v2.5L82,65.9z"/>
		<path class="st0" d="M84.6,62.3H88v1.2h-2.2v2.1h1.7v1.2h-1.7v2.5H88v1.2h-3.4V62.3z"/>
		<path class="st0" d="M90.5,68.4v-4.2c0-1,0.8-1.9,1.9-1.9c1,0,1.9,0.8,1.9,1.9c0,0,0,0,0,0v0.7h-1.2v-0.8c0-0.6-0.2-0.8-0.7-0.8
			s-0.7,0.2-0.7,0.8v4.4c0,0.6,0.2,0.8,0.7,0.8s0.7-0.2,0.7-0.8V67h-0.6v-1.2h1.8v2.6c0,1-0.8,1.9-1.9,1.9
			C91.3,70.3,90.5,69.5,90.5,68.4C90.5,68.5,90.5,68.5,90.5,68.4z"/>
		<path class="st0" d="M96.1,62.3h1.7l1.3,8.1h-1.3l-0.2-1.6l0,0h-1.4l-0.2,1.6h-1.2L96.1,62.3z M97.4,67.7l-0.6-4l0,0l-0.6,4H97.4z
			"/>
		<path class="st0" d="M99.7,62.3h1.8l0.8,5.8l0,0l0.8-5.8h1.9v8.1h-1.2v-6.1l0,0l-0.9,6.1h-1.1l-0.9-6.1l0,0v6.1h-1.2V62.3z"/>
		<path class="st0" d="M105.9,62.3h3.4v1.2h-2.2v2.1h1.7v1.2h-1.7v2.5h2.2v1.2h-3.4V62.3z"/>
		<path class="st1" d="M38.5,1.4c0,0-21.7,8.7-18.3,45.7S37.5,89,37.5,89s-16.9-6.4-19.1-41.8S36.3-0.2,38.5,1.4z"/>
	</g>
</g>
</svg>
